<?xml version="1.0" encoding="UTF-8"?>
<svg width="478px" height="67px" viewBox="0 0 478 67" version="1.1" xmlns="http://www.w3.org/2000/svg" xmlns:xlink="http://www.w3.org/1999/xlink">
    <!-- Generator: Sketch 47.1 (45422) - http://www.bohemiancoding.com/sketch -->
    <title>threadahead</title>
    <desc>Created with Sketch.</desc>
    <defs></defs>
    <g id="Page-1" stroke="none" stroke-width="1" fill="none" fill-rule="evenodd">
        <g id="threadahead" transform="translate(-7.000000, 1.000000)">
            <text id="THREADAHEAD" font-family="FranklinGothic-Regular, Franklin Gothic" font-size="60" font-weight="normal" fill="#FFFFFF">
                <tspan x="12.2236328" y="66">THREADAHEAD</tspan>
            </text>
            <ellipse id="Oval-6" stroke="#979797" fill="#B6B6B6" cx="13.5" cy="23" rx="5.5" ry="15"></ellipse>
            <ellipse id="Oval-6" stroke="#979797" fill="#B6B6B6" cx="46.5" cy="23" rx="5.5" ry="15"></ellipse>
            <rect id="Rectangle-2" fill="#B6B6B6" x="14" y="13" width="31" height="21"></rect>
            <path d="M18,13.1621094 C18.5588608,14.107522 20.3415061,19.259172 20.5456859,23.4659696 C20.5859001,24.2945199 19.5914938,32.200394 18,33.7522151" id="Path-18" stroke="#FFFFFF"></path>
            <path d="M20,13.1621094 C20.5588608,14.107522 22.3415061,19.259172 22.5456859,23.4659696 C22.5859001,24.2945199 21.5914938,32.200394 20,33.7522151" id="Path-18" stroke="#FFFFFF"></path>
            <path d="M22,13.1621094 C22.5588608,14.107522 24.3415061,19.259172 24.5456859,23.4659696 C24.5859001,24.2945199 23.5914938,32.200394 22,33.7522151" id="Path-18" stroke="#FFFFFF"></path>
            <path d="M24,13.1621094 C24.5588608,14.107522 26.3415061,19.259172 26.5456859,23.4659696 C26.5859001,24.2945199 25.5914938,32.200394 24,33.7522151" id="Path-18" stroke="#FFFFFF"></path>
            <path d="M26,13.1621094 C26.5588608,14.107522 28.3415061,19.259172 28.5456859,23.4659696 C28.5859001,24.2945199 27.5914938,32.200394 26,33.7522151" id="Path-18" stroke="#FFFFFF"></path>
            <path d="M28,13.1621094 C28.5588608,14.107522 30.3415061,19.259172 30.5456859,23.4659696 C30.5859001,24.2945199 29.5914938,32.200394 28,33.7522151" id="Path-18" stroke="#FFFFFF"></path>
            <path d="M30,13.1621094 C30.5588608,14.107522 32.3415061,19.259172 32.5456859,23.4659696 C32.5859001,24.2945199 31.5914938,32.200394 30,33.7522151" id="Path-18" stroke="#FFFFFF"></path>
            <path d="M32,13.1621094 C32.5588608,14.107522 34.3415061,19.259172 34.5456859,23.4659696 C34.5859001,24.2945199 33.5914938,32.200394 32,33.7522151" id="Path-18" stroke="#FFFFFF"></path>
            <path d="M34,13.1621094 C34.5588608,14.107522 36.3415061,19.259172 36.5456859,23.4659696 C36.5859001,24.2945199 35.5914938,32.200394 34,33.7522151" id="Path-18" stroke="#FFFFFF"></path>
            <path d="M36,13.1621094 C36.5588608,14.107522 38.3415061,19.259172 38.5456859,23.4659696 C38.5859001,24.2945199 37.5914938,32.200394 36,33.7522151" id="Path-18" stroke="#FFFFFF"></path>
            <path d="M38,13.1621094 C38.5588608,14.107522 40.3415061,19.259172 40.5456859,23.4659696 C40.5859001,24.2945199 39.5914938,32.200394 38,33.7522151" id="Path-18" stroke="#FFFFFF"></path>
            <path d="M40,13.1621094 C40.5588608,14.107522 42.3415061,19.259172 42.5456859,23.4659696 C42.5859001,24.2945199 41.5914938,32.200394 40,33.7522151" id="Path-18" stroke="#FFFFFF"></path>
            <path d="M40,13.1621094 C40.5588608,14.107522 42.3415061,19.259172 42.5456859,23.4659696 C42.5859001,24.2945199 41.5914938,32.200394 40,33.7522151" id="Path-18" stroke="#FFFFFF"></path>
            <path d="M42.2460938,34.0898437 C42.8564894,35.0952179 45.3267735,19.5733453 45.4326172,23.7197266 C45.471545,25.2447083 71.6933594,0.353515625 100.427734,0.353515625 C129.162109,0.353515625 132.351366,19.6816406 162.941406,19.6816406 C167.401993,19.6816406 204.699219,0.353515625 233.628906,0.353515625 C262.558594,0.353515625 276.54085,15.407793 283.636719,23.7197266" id="Path-18" stroke="#FFFFFF"></path>
        </g>
    </g>
</svg>